<?xml version="1.0" encoding="UTF-8"?>
<!DOCTYPE svg PUBLIC "-//W3C//DTD SVG 1.1//EN" "http://www.w3.org/Graphics/SVG/1.1/DTD/svg11.dtd">
<!-- Creator: CorelDRAW X7 -->
<svg xmlns="http://www.w3.org/2000/svg" xml:space="preserve" width="5cm" height="5cm" version="1.1" style="shape-rendering:geometricPrecision; text-rendering:geometricPrecision; image-rendering:optimizeQuality; fill-rule:evenodd; clip-rule:evenodd"
viewBox="0 0 1844 1844"
 xmlns:xlink="http://www.w3.org/1999/xlink">
 <defs>
  <style type="text/css">
   <![CDATA[
    .str0 {stroke:white;stroke-width:5.75259}
    .fil0 {fill:black}
    .fil1 {fill:white;fill-rule:nonzero}
   ]]>
  </style>
 </defs>
 <g id="Layer_x0020_1">
  <metadata id="CorelCorpID_0Corel-Layer"/>
  <g id="_410903968">
   <rect class="fil0 str0" x="3" y="3" width="1839" height="1839" rx="406" ry="406"/>
   <path class="fil1" d="M1303 964c4,-5 9,-9 13,-17 0,-5 4,-8 4,-14 39,-72 57,-144 57,-215l0 -1 0 -1 0 -1 0 0 0 -1 0 -1 0 0 0 -1 0 -6c0,-4 0,-7 0,-12 -8,-260 -226,-468 -485,-468l-395 0 -30 35 108 216 35 -35 291 0c117,0 235,61 320,178 16,25 31,53 43,82 24,61 31,117 31,167 0,18 1,64 -18,133 8,-13 16,-25 26,-38zm-191 -101c-47,68 -119,110 -211,110l-218 0 0 -279c0,-52 -42,-95 -95,-95l-121 0 0 590 434 0c207,0 333,-122 350,-299 1,-6 1,-11 1,-16l0 -1 0 -1 0 0 0 -1 0 -1 0 -1 0 0 0 0 0 -1 0 -1 0 -1 0 -5 0 -1 0 -1c0,-44 -8,-99 -30,-153 -22,-54 -56,-101 -97,-129 28,50 37,92 37,131 0,7 -1,16 -2,32 -2,31 -19,83 -48,123z"/>
   <path class="fil1" d="M419 1412l9 9c1,-3 2,-5 3,-7l0 -1 1 -1 0 0 1 -1 0 0 0 -2 0 0 1 -1 0 0 1 -2 0 0c4,-8 9,-18 13,-26 1,-1 2,-3 2,-4 0,-1 0,-1 1,-1l0 0 0 0 0 0 0 0 0 -1 0 0c0,0 0,0 0,0 1,-1 1,-1 1,-1l0 0c0,-1 0,-1 0,-1l0 0 0 0c1,-2 1,-3 2,-3l-8 -9 -128 0c-46,0 -83,28 -84,75 11,-16 29,-23 55,-23l130 0zm-124 179c0,0 -1,-1 -2,-2l0 0 0 0 0 0 -1 -1 0 0 0 0 0 0 -1 0 0 0 0 -1 0 0c-2,-2 -4,-4 -4,-4l0 -159c-3,0 -5,0 -7,0 -9,0 -21,2 -30,9 -10,7 -16,17 -16,29l0 129 61 0zm83 -81l8 8 26 -52 -8 -8 -57 0c1,0 1,0 1,0 6,7 10,16 10,26 0,10 -4,19 -10,26 0,0 0,0 -1,0l31 0zm-56 0c14,0 26,-12 26,-26 0,-15 -12,-26 -26,-26 -15,0 -26,11 -26,26 0,14 11,26 26,26z"/>
   <path id="1" class="fil1" d="M513 1507c-8,-13 -8,-25 -8,-31 0,-8 1,-19 8,-32 11,-19 30,-32 55,-32l1 0c31,0 60,16 77,40 6,9 11,18 14,28 5,15 6,25 6,30 0,1 0,4 0,5 0,10 -2,21 -5,31 19,-25 24,-50 24,-70 0,-4 0,-10 -1,-19 -1,-9 -5,-20 -11,-32 -18,-37 -56,-65 -104,-65 -25,0 -44,7 -58,18 -21,17 -28,43 -28,63 0,3 0,14 5,29 5,15 14,29 25,37zm57 84c42,0 70,-21 80,-52 6,-17 5,-27 5,-29 0,-24 -9,-52 -30,-66 8,13 8,24 8,31 0,8 -1,19 -8,31 -11,19 -30,33 -55,33 -32,0 -60,-16 -78,-41 -6,-8 -10,-17 -14,-27 -5,-15 -6,-26 -6,-30 0,-1 1,-4 1,-5 0,-10 1,-21 4,-31 -20,25 -24,50 -24,70 0,4 0,10 1,19 1,9 5,20 11,32 18,37 56,65 105,65l0 0zm0 -88c15,0 26,-12 26,-26 0,-15 -11,-26 -26,-26 -14,0 -26,11 -26,26 0,14 12,26 26,26z"/>
   <path id="2" class="fil1" d="M717 1360l0 120c0,61 49,111 110,111 25,0 48,-8 67,-23 -11,4 -21,5 -31,5 -23,0 -43,-7 -56,-18 -28,-21 -38,-54 -38,-74l0 -106c1,-2 2,-5 4,-7 2,-3 4,-7 5,-8l-61 0zm220 0l-61 0c1,2 8,14 8,15l0 112c0,32 -25,59 -57,59 -9,0 -17,-2 -25,-6 12,14 33,22 57,22 37,0 78,-22 78,-81l0 -121z"/>
   <path id="3" class="fil1" d="M962 1591l61 0c0,1 -8,-13 -9,-14l0 -86c6,0 13,0 19,0 18,0 43,1 67,4 24,4 41,10 50,20 -8,-30 -29,-51 -58,-59l45 -46c0,-27 -29,-46 -54,-50l-121 0 0 231zm200 -180c6,12 16,23 29,34 0,-22 16,-33 42,-33l101 0 8 9 26 -52 -8 -9 -164 0c-28,0 -38,18 -38,34 0,1 -1,7 4,17l0 0zm-100 1l-48 53 0 -53 48 0zm157 55c24,17 53,37 75,60 4,1 7,2 11,2 7,0 12,-2 16,-6 8,-7 9,-16 9,-20 0,-6 -2,-16 -11,-24 -26,-23 -53,-43 -74,-58 -11,0 -19,1 -25,4 -13,6 -15,14 -15,19 0,5 1,14 14,23zm-133 36c18,9 23,48 23,88l223 0c15,0 26,-6 32,-15 6,-9 6,-17 6,-20 0,-4 -1,-8 -2,-13 -6,-15 -16,-30 -29,-44 1,3 1,7 1,10 0,4 0,11 -6,18 -6,8 -16,12 -29,12l-152 0c-7,-21 -26,-33 -67,-36z"/>
   <path id="4" class="fil1" d="M1451 1508c-9,-14 -9,-25 -9,-32 0,-8 1,-19 8,-31 11,-19 31,-33 55,-33l71 0 8 9 26 -52 -8 -9 -96 0c-54,0 -84,33 -85,79l0 4c0,26 12,53 30,65zm-61 -29c2,63 55,112 117,112l69 0c1,1 3,3 5,5l1 2c1,0 1,1 2,1l26 -52c-1,-1 -2,-2 -3,-3 -2,-2 -4,-4 -5,-5l-95 0c-27,0 -58,-12 -79,-42 -13,-18 -18,-42 -18,-61 0,-4 -1,-14 4,-31 -16,21 -24,45 -24,71l0 3zm129 20l36 0 8 9 26 -52 -8 -9 -62 0c7,7 11,16 11,27 0,10 -4,19 -10,25l-1 0zm-25 0c14,0 26,-11 26,-25 0,-15 -12,-27 -26,-27 -15,0 -26,12 -26,27 0,14 11,25 26,25z"/>
  </g>
 </g>
</svg>
